<svg viewBox="0 0 16 16" fill="#000000" xmlns="http://www.w3.org/2000/svg" id="Whatsapp-Line--Streamline-Remix" height="16" width="16">
  <desc>
    Whatsapp Line Streamline Icon: https://streamlinehq.com
  </desc>
  <path d="m4.8357399999999995 12.3296 0.4831533333333333 0.2817333333333333C6.12606 13.082 7.043399999999999 13.333333333333332 8.000666666666666 13.333333333333332c2.9455333333333336 0 5.333333333333333 -2.3878 5.333333333333333 -5.333333333333333 0 -2.94552 -2.3878 -5.333333333333333 -5.333333333333333 -5.333333333333333s-5.333346666666666 2.387813333333333 -5.333346666666666 5.333333333333333c0 0.9575333333333332 0.25148666666666664 1.8752 0.7224533333333333 2.6825333333333328l0.28158666666666665 0.48266666666666663 -0.43566 1.6010666666666666 1.60004 -0.43666666666666665ZM1.3367733333333334 14.666666666666666l0.9013066666666667 -3.312333333333333C1.6632933333333333 10.369066666666665 1.3339866666666667 9.222999999999999 1.3339866666666667 8c0 -3.6818999999999997 2.9847666666666663 -6.666666666666666 6.6666799999999995 -6.666666666666666 3.6818666666666666 0 6.666666666666666 2.9847666666666663 6.666666666666666 6.666666666666666 0 3.6818666666666666 -2.9848 6.666666666666666 -6.666666666666666 6.666666666666666 -1.2226 0 -2.3683266666666665 -0.3290666666666666 -3.3534266666666666 -0.9035333333333333L1.3367733333333334 14.666666666666666ZM5.59488 4.8722199999999996c0.08925333333333332 -0.006273333333333333 0.17880666666666667 -0.007233333333333333 0.26818 -0.0028733333333333328 0.03610666666666666 0.002373333333333333 0.07203999999999999 0.006546666666666667 0.108 0.010699999999999998 0.10617333333333334 0.01226 0.22292666666666666 0.07691999999999999 0.26217999999999997 0.16591333333333333 0.19887999999999997 0.45094666666666666 0.3918533333333333 0.9044733333333334 0.5788933333333333 1.36046 0.04126666666666666 0.10066 0.016399999999999998 0.23113333333333333 -0.06213333333333333 0.35738000000000003 -0.03986666666666666 0.06473333333333334 -0.10247999999999999 0.15553333333333333 -0.1750133333333333 0.24839999999999998 -0.07539333333333333 0.09646666666666666 -0.23765999999999998 0.27386666666666665 -0.23765999999999998 0.27386666666666665s-0.06573999999999999 0.0788 -0.040959999999999996 0.17686666666666664c0.009653333333333333 0.037066666666666664 0.04044 0.09106666666666666 0.06835333333333332 0.13646666666666665 0.015459999999999998 0.02513333333333333 0.029813333333333334 0.0476 0.039126666666666664 0.06313333333333333 0.1706133333333333 0.28486666666666666 0.39995333333333327 0.5736666666666667 0.6800866666666666 0.8452 0.08026666666666665 0.0778 0.15813333333333332 0.1572 0.24186666666666667 0.23093333333333332 0.3122 0.27526666666666666 0.6654 0.5002 1.0468666666666666 0.6668l0.0034000000000000002 0.0015333333333333332c0.05633333333333333 0.024266666666666666 0.08526666666666667 0.037533333333333335 0.16773333333333332 0.07253333333333332 0.0416 0.017599999999999998 0.08413333333333334 0.032799999999999996 0.1278 0.044333333333333336 0.015799999999999998 0.004133333333333333 0.032 0.006466666666666667 0.048266666666666666 0.0076 0.1078 0.006466666666666667 0.1701333333333333 -0.06266666666666666 0.19673333333333332 -0.09446666666666666 0.48233333333333334 -0.5843333333333333 0.5264666666666666 -0.6224666666666666 0.5297999999999999 -0.6222v0.0010666666666666667c0.0634 -0.0668 0.16306666666666667 -0.09 0.252 -0.08453333333333332 0.0406 0.0024666666666666665 0.08099999999999999 0.010266666666666667 0.11793333333333333 0.027133333333333332 0.35453333333333337 0.16173333333333334 0.9341999999999999 0.414 0.9341999999999999 0.414l0.38766666666666666 0.17426666666666668c0.06493333333333333 0.03133333333333333 0.12419999999999999 0.10513333333333333 0.12706666666666666 0.17686666666666664 0.0017333333333333333 0.0446 0.006533333333333333 0.1166 -0.009399999999999999 0.24833333333333332 -0.020866666666666665 0.17246666666666666 -0.07333333333333333 0.3801333333333333 -0.12546666666666667 0.48893333333333333 -0.03666666666666667 0.07633333333333334 -0.08413333333333334 0.14406666666666665 -0.1393333333333333 0.20139999999999997 -0.07486666666666666 0.07773333333333332 -0.13046666666666668 0.12493333333333334 -0.22046666666666664 0.19199999999999998 -0.054799999999999995 0.040799999999999996 -0.0832 0.06 -0.0832 0.06 -0.09259999999999999 0.058399999999999994 -0.14479999999999998 0.08759999999999998 -0.2551333333333333 0.14633333333333332 -0.1716 0.0914 -0.36119999999999997 0.14393333333333333 -0.5553999999999999 0.1539333333333333 -0.1238 0.006333333333333333 -0.24726666666666666 0.015266666666666666 -0.37093333333333334 0.0086 -0.0054666666666666665 -0.0003333333333333333 -0.3788 -0.05766666666666666 -0.3788 -0.05766666666666666 -0.9479333333333333 -0.24933333333333332 -1.8245999999999998 -0.7163999999999999 -2.56024 -1.3641333333333332 -0.15040666666666666 -0.1324 -0.28989333333333334 -0.2756666666666666 -0.43226666666666663 -0.4174 -0.5927066666666666 -0.5900666666666666 -1.0414133333333333 -1.2263333333333333 -1.3135 -1.8282 -0.1341733333333333 -0.29679999999999995 -0.21913333333333332 -0.6146666666666667 -0.22047333333333333 -0.9417466666666666 -0.00246 -0.40462 0.13000666666666666 -0.79852 0.3764733333333333 -1.1194133333333331 0.04858666666666667 -0.06326 0.0947 -0.12887333333333334 0.17426666666666668 -0.204 0.08426 -0.07956666666666666 0.13788666666666666 -0.12228 0.19565333333333335 -0.15183333333333332 0.077 -0.03939333333333333 0.16157333333333332 -0.06046 0.24783333333333335 -0.06652Z" stroke-width="0.6667"></path>
</svg>